<svg xmlns="http://www.w3.org/2000/svg" viewBox="124.059 442.731 200.554 152.339" fill="none"><g filter="url(#filter1_ddd_26_1110)">
<mask id="path-61-inside-2_26_1110" fill="white">
<path d="M148.059 478.137C148.059 471.838 153.165 466.731 159.464 466.731H289.207C295.506 466.731 300.613 471.838 300.613 478.137V543.665C300.613 549.964 295.506 555.071 289.207 555.071H159.464C153.165 555.071 148.059 549.964 148.059 543.665V478.137Z" />
</mask>
<path d="M148.059 478.137C148.059 471.838 153.165 466.731 159.464 466.731H289.207C295.506 466.731 300.613 471.838 300.613 478.137V543.665C300.613 549.964 295.506 555.071 289.207 555.071H159.464C153.165 555.071 148.059 549.964 148.059 543.665V478.137Z" fill="white" />
<path d="M159.464 466.731V470.296H289.207V466.731V463.167H159.464V466.731ZM300.613 478.137H297.048V543.665H300.613H304.177V478.137H300.613ZM289.207 555.071V551.506H159.464V555.071V558.635H289.207V555.071ZM148.059 543.665H151.623V478.137H148.059H144.494V543.665H148.059ZM159.464 555.071V551.506C155.134 551.506 151.623 547.996 151.623 543.665H148.059H144.494C144.494 551.933 151.197 558.635 159.464 558.635V555.071ZM300.613 543.665H297.048C297.048 547.996 293.537 551.506 289.207 551.506V555.071V558.635C297.475 558.635 304.177 551.933 304.177 543.665H300.613ZM289.207 466.731V470.296C293.537 470.296 297.048 473.807 297.048 478.137H300.613H304.177C304.177 469.87 297.475 463.167 289.207 463.167V466.731ZM159.464 466.731V463.167C151.197 463.167 144.494 469.87 144.494 478.137H148.059H151.623C151.623 473.807 155.134 470.296 159.464 470.296V466.731Z" fill="#F2F2F2" mask="url(#path-61-inside-2_26_1110)" />
<path d="M155.184 482.443C155.184 477.719 159.014 473.889 163.738 473.889H284.926C289.65 473.889 293.48 477.719 293.48 482.443V497.47C293.48 502.195 289.65 506.025 284.926 506.025H163.738C159.014 506.025 155.184 502.195 155.184 497.47V482.443Z" fill="black" fill-opacity="0.04" />
<path d="M158.777 484.61C158.777 480.673 161.969 477.481 165.906 477.481H176.599C180.536 477.481 183.728 480.673 183.728 484.61V495.303C183.728 499.24 180.536 502.432 176.599 502.432H165.906C161.969 502.432 158.777 499.24 158.777 495.303V484.61Z" fill="#0851DD" fill-opacity="0.07" />
<path d="M169.048 484.998H166.844C166.54 484.998 166.293 485.244 166.293 485.549V487.753C166.293 488.057 166.54 488.303 166.844 488.303H169.048C169.352 488.303 169.599 488.057 169.599 487.753V485.549C169.599 485.244 169.352 484.998 169.048 484.998Z" stroke="#0851DD" stroke-width="1.10198" />
<path d="M175.657 491.609H173.453C173.149 491.609 172.902 491.856 172.902 492.16V494.364C172.902 494.669 173.149 494.915 173.453 494.915H175.657C175.962 494.915 176.208 494.669 176.208 494.364V492.16C176.208 491.856 175.962 491.609 175.657 491.609Z" stroke="#0851DD" stroke-width="1.10198" />
<path d="M166.293 488.303V491.609C166.293 492.048 166.467 492.468 166.777 492.778C167.087 493.088 167.508 493.262 167.946 493.262H171.252" stroke="#0851DD" stroke-width="1.10198" />
<path d="M176.213 491.609V488.303C176.213 487.865 176.039 487.445 175.729 487.135C175.419 486.825 174.998 486.65 174.56 486.65H171.254" stroke="#0851DD" stroke-width="1.10198" />
<path d="M190.993 494.957L194.261 485.663H196.083L199.351 494.957H197.779L197.068 492.873H193.288L192.565 494.957H190.993ZM193.712 491.563H196.619L194.972 486.698H195.384L193.712 491.563ZM202.602 495.106C202.095 495.106 201.65 494.994 201.267 494.769C200.885 494.537 200.586 494.216 200.369 493.809C200.161 493.393 200.057 492.915 200.057 492.374V488.207H201.467V492.249C201.467 492.557 201.529 492.827 201.654 493.06C201.779 493.293 201.954 493.476 202.178 493.609C202.403 493.734 202.661 493.796 202.952 493.796C203.251 493.796 203.513 493.73 203.738 493.597C203.962 493.464 204.137 493.277 204.262 493.035C204.395 492.794 204.461 492.511 204.461 492.187V488.207H205.858V494.957H204.524V493.634L204.673 493.809C204.515 494.225 204.253 494.545 203.887 494.769C203.521 494.994 203.093 495.106 202.602 495.106ZM210.424 495.031C209.717 495.031 209.168 494.832 208.777 494.433C208.386 494.033 208.19 493.472 208.19 492.748V489.48H207.005V488.207H207.192C207.508 488.207 207.754 488.116 207.928 487.933C208.103 487.75 208.19 487.501 208.19 487.184V486.661H209.6V488.207H211.135V489.48H209.6V492.686C209.6 492.919 209.638 493.119 209.712 493.285C209.787 493.443 209.908 493.568 210.074 493.659C210.241 493.742 210.457 493.784 210.723 493.784C210.789 493.784 210.864 493.78 210.947 493.771C211.031 493.763 211.11 493.755 211.185 493.746V494.957C211.068 494.973 210.939 494.99 210.798 495.006C210.656 495.023 210.532 495.031 210.424 495.031ZM215.694 495.106C215.046 495.106 214.451 494.952 213.91 494.645C213.378 494.337 212.954 493.917 212.638 493.385C212.322 492.852 212.164 492.249 212.164 491.576C212.164 490.894 212.322 490.291 212.638 489.767C212.954 489.235 213.378 488.819 213.91 488.519C214.443 488.212 215.037 488.058 215.694 488.058C216.36 488.058 216.954 488.212 217.478 488.519C218.011 488.819 218.431 489.235 218.738 489.767C219.054 490.291 219.212 490.894 219.212 491.576C219.212 492.258 219.054 492.865 218.738 493.397C218.422 493.929 217.998 494.349 217.466 494.657C216.934 494.957 216.343 495.106 215.694 495.106ZM215.694 493.796C216.094 493.796 216.447 493.701 216.755 493.509C217.063 493.318 217.304 493.056 217.478 492.723C217.661 492.382 217.753 492 217.753 491.576C217.753 491.152 217.661 490.773 217.478 490.441C217.304 490.108 217.063 489.846 216.755 489.655C216.447 489.463 216.094 489.368 215.694 489.368C215.303 489.368 214.95 489.463 214.634 489.655C214.326 489.846 214.081 490.108 213.898 490.441C213.723 490.773 213.636 491.152 213.636 491.576C213.636 492 213.723 492.382 213.898 492.723C214.081 493.056 214.326 493.318 214.634 493.509C214.95 493.701 215.303 493.796 215.694 493.796ZM220.589 494.957V488.207H221.936V489.667L221.761 489.443C221.903 488.985 222.161 488.64 222.535 488.407C222.909 488.174 223.337 488.058 223.82 488.058C224.36 488.058 224.839 488.203 225.254 488.494C225.679 488.777 225.961 489.156 226.103 489.63L225.704 489.667C225.903 489.126 226.207 488.723 226.614 488.457C227.03 488.191 227.504 488.058 228.036 488.058C228.502 488.058 228.922 488.166 229.296 488.382C229.679 488.598 229.983 488.898 230.207 489.28C230.432 489.663 230.544 490.1 230.544 490.59V494.957H229.134V490.977C229.134 490.636 229.072 490.349 228.947 490.116C228.831 489.875 228.664 489.692 228.448 489.567C228.24 489.434 227.995 489.368 227.712 489.368C227.429 489.368 227.18 489.434 226.964 489.567C226.747 489.692 226.577 489.875 226.452 490.116C226.327 490.357 226.265 490.644 226.265 490.977V494.957H224.868V490.977C224.868 490.636 224.805 490.349 224.681 490.116C224.564 489.875 224.398 489.692 224.182 489.567C223.974 489.434 223.724 489.368 223.433 489.368C223.15 489.368 222.901 489.434 222.685 489.567C222.468 489.692 222.298 489.875 222.173 490.116C222.057 490.357 221.998 490.644 221.998 490.977V494.957H220.589ZM234.074 495.106C233.616 495.106 233.213 495.027 232.864 494.869C232.523 494.703 232.256 494.478 232.065 494.196C231.874 493.904 231.778 493.563 231.778 493.173C231.778 492.807 231.857 492.478 232.015 492.187C232.182 491.896 232.435 491.651 232.776 491.451C233.117 491.251 233.546 491.11 234.061 491.027L236.407 490.64V491.75L234.336 492.112C233.961 492.179 233.687 492.299 233.512 492.474C233.338 492.64 233.25 492.857 233.25 493.123C233.25 493.381 233.346 493.593 233.537 493.759C233.737 493.917 233.991 493.996 234.298 493.996C234.681 493.996 235.013 493.913 235.296 493.746C235.587 493.58 235.812 493.36 235.97 493.085C236.128 492.802 236.207 492.491 236.207 492.15V490.416C236.207 490.083 236.082 489.813 235.833 489.605C235.592 489.388 235.267 489.28 234.86 489.28C234.485 489.28 234.157 489.38 233.874 489.58C233.6 489.771 233.396 490.021 233.263 490.328L232.09 489.742C232.215 489.409 232.419 489.118 232.701 488.869C232.984 488.611 233.313 488.411 233.687 488.27C234.07 488.128 234.473 488.058 234.897 488.058C235.429 488.058 235.899 488.158 236.307 488.357C236.723 488.557 237.043 488.835 237.267 489.193C237.5 489.542 237.617 489.95 237.617 490.416V494.957H236.269V493.734L236.556 493.771C236.398 494.046 236.194 494.283 235.945 494.482C235.704 494.682 235.425 494.836 235.109 494.944C234.801 495.052 234.456 495.106 234.074 495.106ZM242.062 495.031C241.355 495.031 240.806 494.832 240.416 494.433C240.025 494.033 239.829 493.472 239.829 492.748V489.48H238.644V488.207H238.831C239.147 488.207 239.393 488.116 239.567 487.933C239.742 487.75 239.829 487.501 239.829 487.184V486.661H241.239V488.207H242.773V489.48H241.239V492.686C241.239 492.919 241.276 493.119 241.351 493.285C241.426 493.443 241.547 493.568 241.713 493.659C241.879 493.742 242.096 493.784 242.362 493.784C242.428 493.784 242.503 493.78 242.586 493.771C242.669 493.763 242.748 493.755 242.823 493.746V494.957C242.707 494.973 242.578 494.99 242.437 495.006C242.295 495.023 242.17 495.031 242.062 495.031ZM244.199 494.957V488.207H245.609V494.957H244.199ZM244.199 487.284V485.663H245.609V487.284H244.199ZM250.513 495.106C249.864 495.106 249.27 494.952 248.729 494.645C248.197 494.337 247.773 493.917 247.456 493.385C247.14 492.852 246.982 492.249 246.982 491.576C246.982 490.894 247.14 490.291 247.456 489.767C247.773 489.235 248.197 488.819 248.729 488.519C249.261 488.212 249.856 488.058 250.513 488.058C251.178 488.058 251.773 488.212 252.297 488.519C252.829 488.819 253.249 489.235 253.557 489.767C253.873 490.291 254.031 490.894 254.031 491.576C254.031 492.258 253.873 492.865 253.557 493.397C253.241 493.929 252.817 494.349 252.284 494.657C251.752 494.957 251.162 495.106 250.513 495.106ZM250.513 493.796C250.912 493.796 251.266 493.701 251.573 493.509C251.881 493.318 252.122 493.056 252.297 492.723C252.48 492.382 252.571 492 252.571 491.576C252.571 491.152 252.48 490.773 252.297 490.441C252.122 490.108 251.881 489.846 251.573 489.655C251.266 489.463 250.912 489.368 250.513 489.368C250.122 489.368 249.769 489.463 249.453 489.655C249.145 489.846 248.899 490.108 248.716 490.441C248.542 490.773 248.454 491.152 248.454 491.576C248.454 492 248.542 492.382 248.716 492.723C248.899 493.056 249.145 493.318 249.453 493.509C249.769 493.701 250.122 493.796 250.513 493.796ZM255.407 494.957V488.207H256.754V489.53L256.592 489.355C256.759 488.931 257.025 488.611 257.391 488.395C257.757 488.17 258.181 488.058 258.663 488.058C259.162 488.058 259.603 488.166 259.986 488.382C260.368 488.598 260.668 488.898 260.884 489.28C261.1 489.663 261.208 490.104 261.208 490.603V494.957H259.811V490.977C259.811 490.636 259.749 490.349 259.624 490.116C259.499 489.875 259.32 489.692 259.087 489.567C258.863 489.434 258.605 489.368 258.314 489.368C258.023 489.368 257.761 489.434 257.528 489.567C257.303 489.692 257.129 489.875 257.004 490.116C256.879 490.357 256.817 490.644 256.817 490.977V494.957H255.407Z" fill="black" />
<path d="M162.402 526.449C161.896 526.449 161.436 526.353 161.023 526.16C160.609 525.968 160.26 525.711 159.975 525.391C159.69 525.063 159.487 524.703 159.365 524.311L160.135 524.022C160.321 524.564 160.609 524.977 161.001 525.262C161.394 525.54 161.861 525.679 162.402 525.679C162.744 525.679 163.044 525.626 163.3 525.519C163.564 525.405 163.767 525.248 163.91 525.048C164.053 524.849 164.124 524.617 164.124 524.353C164.124 523.961 164.017 523.658 163.803 523.444C163.589 523.231 163.283 523.067 162.883 522.952L161.451 522.525C160.887 522.361 160.453 522.086 160.146 521.701C159.847 521.316 159.697 520.878 159.697 520.386C159.697 519.966 159.8 519.595 160.007 519.274C160.214 518.946 160.495 518.69 160.852 518.504C161.215 518.319 161.625 518.226 162.081 518.226C162.559 518.226 162.987 518.315 163.365 518.493C163.75 518.665 164.074 518.893 164.338 519.178C164.601 519.463 164.79 519.78 164.904 520.13L164.156 520.429C163.985 519.958 163.718 519.602 163.354 519.36C162.998 519.117 162.577 518.996 162.092 518.996C161.786 518.996 161.515 519.05 161.28 519.156C161.051 519.263 160.873 519.417 160.745 519.616C160.617 519.816 160.552 520.051 160.552 520.322C160.552 520.65 160.656 520.946 160.862 521.21C161.069 521.466 161.386 521.659 161.814 521.787L163.076 522.161C163.703 522.347 164.177 522.614 164.498 522.963C164.819 523.312 164.979 523.751 164.979 524.278C164.979 524.706 164.869 525.084 164.648 525.412C164.434 525.733 164.131 525.986 163.739 526.171C163.354 526.356 162.908 526.449 162.402 526.449ZM168.597 526.385C168.084 526.385 167.688 526.235 167.41 525.936C167.132 525.636 166.993 525.209 166.993 524.653V521.391H165.935V520.589H166.202C166.444 520.589 166.637 520.511 166.779 520.354C166.922 520.19 166.993 519.987 166.993 519.745V519.263H167.795V520.589H169.057V521.391H167.795V524.653C167.795 524.845 167.824 525.016 167.881 525.166C167.938 525.309 168.034 525.423 168.17 525.508C168.312 525.594 168.501 525.636 168.736 525.636C168.793 525.636 168.861 525.633 168.939 525.626C169.018 525.619 169.086 525.611 169.143 525.604V526.321C169.057 526.342 168.961 526.356 168.854 526.364C168.747 526.378 168.661 526.385 168.597 526.385ZM170.443 526.321V520.589H171.244V521.53L171.138 521.391C171.273 521.12 171.476 520.907 171.747 520.75C172.025 520.593 172.36 520.514 172.752 520.514H173.116V521.316H172.613C172.2 521.316 171.868 521.445 171.619 521.701C171.369 521.958 171.244 522.322 171.244 522.792V526.321H170.443ZM176.556 526.449C176.022 526.449 175.537 526.321 175.102 526.064C174.674 525.8 174.336 525.44 174.086 524.984C173.837 524.528 173.712 524.011 173.712 523.434C173.712 522.856 173.833 522.347 174.076 521.905C174.318 521.455 174.646 521.103 175.059 520.846C175.48 520.589 175.95 520.461 176.471 520.461C176.884 520.461 177.251 520.539 177.572 520.696C177.9 520.846 178.178 521.053 178.406 521.316C178.634 521.573 178.809 521.865 178.93 522.193C179.051 522.514 179.112 522.846 179.112 523.188C179.112 523.259 179.108 523.341 179.101 523.434C179.094 523.519 179.083 523.608 179.069 523.701H174.225V522.952H178.609L178.224 523.273C178.289 522.881 178.242 522.532 178.085 522.225C177.936 521.912 177.718 521.666 177.433 521.488C177.148 521.302 176.827 521.21 176.471 521.21C176.114 521.21 175.783 521.302 175.476 521.488C175.177 521.673 174.942 521.933 174.771 522.268C174.6 522.596 174.532 522.988 174.567 523.444C174.532 523.901 174.603 524.3 174.781 524.642C174.967 524.977 175.216 525.237 175.53 525.423C175.851 525.608 176.193 525.701 176.556 525.701C176.977 525.701 177.33 525.601 177.615 525.401C177.9 525.202 178.132 524.952 178.31 524.653L178.994 525.016C178.88 525.273 178.706 525.512 178.47 525.733C178.235 525.947 177.954 526.121 177.626 526.257C177.305 526.385 176.948 526.449 176.556 526.449ZM181.971 526.449C181.607 526.449 181.283 526.381 180.998 526.246C180.712 526.103 180.488 525.911 180.324 525.669C180.16 525.426 180.078 525.148 180.078 524.834C180.078 524.535 180.142 524.264 180.27 524.022C180.399 523.772 180.598 523.562 180.869 523.391C181.14 523.22 181.486 523.099 181.906 523.027L184.152 522.653V523.38L182.099 523.722C181.685 523.794 181.386 523.926 181.201 524.118C181.022 524.311 180.933 524.539 180.933 524.802C180.933 525.059 181.033 525.276 181.233 525.455C181.44 525.633 181.703 525.722 182.024 525.722C182.416 525.722 182.758 525.64 183.051 525.476C183.343 525.305 183.571 525.077 183.735 524.792C183.899 524.507 183.981 524.189 183.981 523.84V522.386C183.981 522.044 183.856 521.766 183.607 521.552C183.357 521.338 183.033 521.231 182.634 521.231C182.284 521.231 181.978 521.32 181.714 521.498C181.45 521.669 181.254 521.894 181.126 522.172L180.399 521.776C180.506 521.534 180.673 521.313 180.901 521.113C181.137 520.914 181.404 520.757 181.703 520.643C182.003 520.522 182.313 520.461 182.634 520.461C183.054 520.461 183.425 520.543 183.746 520.707C184.074 520.871 184.327 521.099 184.505 521.391C184.69 521.676 184.783 522.008 184.783 522.386V526.321H183.981V525.177L184.099 525.294C183.999 525.508 183.842 525.704 183.628 525.882C183.421 526.053 183.175 526.192 182.89 526.299C182.612 526.399 182.306 526.449 181.971 526.449ZM186.324 526.321V520.589H187.126V521.68L186.998 521.52C187.155 521.185 187.386 520.924 187.693 520.739C188.006 520.554 188.349 520.461 188.719 520.461C189.161 520.461 189.561 520.586 189.917 520.835C190.273 521.085 190.526 521.409 190.676 521.808L190.452 521.819C190.594 521.377 190.84 521.042 191.189 520.814C191.546 520.579 191.938 520.461 192.366 520.461C192.751 520.461 193.103 520.554 193.424 520.739C193.752 520.924 194.012 521.181 194.205 521.509C194.404 521.83 194.504 522.193 194.504 522.6V526.321H193.702V522.91C193.702 522.56 193.638 522.265 193.51 522.022C193.389 521.78 193.221 521.594 193.007 521.466C192.793 521.331 192.547 521.263 192.269 521.263C191.999 521.263 191.753 521.331 191.532 521.466C191.311 521.594 191.136 521.783 191.008 522.033C190.879 522.275 190.815 522.568 190.815 522.91V526.321H190.013V522.91C190.013 522.56 189.949 522.265 189.821 522.022C189.7 521.78 189.532 521.594 189.318 521.466C189.104 521.331 188.858 521.263 188.58 521.263C188.302 521.263 188.053 521.331 187.832 521.466C187.618 521.594 187.447 521.783 187.319 522.033C187.19 522.275 187.126 522.568 187.126 522.91V526.321H186.324ZM195.927 526.321V518.226H196.729V526.321H195.927ZM198.262 526.321V520.589H199.064V526.321H198.262ZM198.262 519.531V518.354H199.064V519.531H198.262ZM200.598 526.321V520.589H201.399V521.701L201.218 521.659C201.36 521.288 201.592 520.996 201.913 520.782C202.241 520.568 202.618 520.461 203.046 520.461C203.453 520.461 203.816 520.554 204.137 520.739C204.465 520.924 204.721 521.181 204.907 521.509C205.099 521.83 205.196 522.193 205.196 522.6V526.321H204.394V522.91C204.394 522.56 204.329 522.265 204.201 522.022C204.08 521.78 203.905 521.594 203.677 521.466C203.456 521.331 203.199 521.263 202.907 521.263C202.615 521.263 202.355 521.331 202.127 521.466C201.899 521.594 201.72 521.783 201.592 522.033C201.464 522.275 201.399 522.568 201.399 522.91V526.321H200.598ZM206.619 526.321V520.589H207.421V526.321H206.619ZM206.619 519.531V518.354H207.421V519.531H206.619ZM208.954 526.321V520.589H209.756V521.701L209.574 521.659C209.717 521.288 209.948 520.996 210.269 520.782C210.597 520.568 210.975 520.461 211.403 520.461C211.809 520.461 212.173 520.554 212.493 520.739C212.821 520.924 213.078 521.181 213.263 521.509C213.456 521.83 213.552 522.193 213.552 522.6V526.321H212.75V522.91C212.75 522.56 212.686 522.265 212.558 522.022C212.436 521.78 212.262 521.594 212.034 521.466C211.813 521.331 211.556 521.263 211.264 521.263C210.971 521.263 210.711 521.331 210.483 521.466C210.255 521.594 210.077 521.783 209.948 522.033C209.82 522.275 209.756 522.568 209.756 522.91V526.321H208.954ZM217.691 528.673C217.299 528.673 216.936 528.613 216.601 528.491C216.273 528.37 215.988 528.203 215.745 527.989C215.51 527.782 215.328 527.54 215.2 527.262L215.938 526.866C216.052 527.137 216.255 527.372 216.547 527.572C216.84 527.771 217.214 527.871 217.67 527.871C218.019 527.871 218.34 527.804 218.632 527.668C218.925 527.533 219.16 527.333 219.338 527.069C219.516 526.806 219.605 526.481 219.605 526.096V524.824L219.734 524.941C219.534 525.355 219.238 525.676 218.846 525.904C218.454 526.125 218.026 526.235 217.563 526.235C217.028 526.235 216.547 526.107 216.12 525.85C215.692 525.594 215.353 525.248 215.104 524.813C214.861 524.371 214.74 523.883 214.74 523.348C214.74 522.806 214.861 522.318 215.104 521.883C215.353 521.448 215.688 521.103 216.109 520.846C216.537 520.589 217.021 520.461 217.563 520.461C218.026 520.461 218.447 520.568 218.825 520.782C219.21 520.996 219.513 521.284 219.734 521.648L219.605 521.872V520.589H220.407V526.096C220.407 526.588 220.29 527.027 220.055 527.411C219.826 527.804 219.506 528.11 219.092 528.331C218.686 528.559 218.219 528.673 217.691 528.673ZM217.606 525.433C217.977 525.433 218.312 525.341 218.611 525.155C218.91 524.963 219.149 524.71 219.327 524.396C219.513 524.075 219.605 523.726 219.605 523.348C219.605 522.97 219.513 522.625 219.327 522.311C219.149 521.99 218.91 521.737 218.611 521.552C218.312 521.359 217.977 521.263 217.606 521.263C217.228 521.263 216.886 521.359 216.579 521.552C216.273 521.737 216.03 521.987 215.852 522.3C215.681 522.614 215.596 522.963 215.596 523.348C215.596 523.726 215.681 524.075 215.852 524.396C216.03 524.71 216.269 524.963 216.569 525.155C216.875 525.341 217.221 525.433 217.606 525.433ZM223.656 526.321V520.589H224.458V521.53L224.351 521.391C224.486 521.12 224.689 520.907 224.96 520.75C225.238 520.593 225.573 520.514 225.965 520.514H226.329V521.316H225.826C225.413 521.316 225.081 521.445 224.832 521.701C224.582 521.958 224.458 522.322 224.458 522.792V526.321H223.656ZM229.769 526.449C229.235 526.449 228.75 526.321 228.315 526.064C227.887 525.8 227.549 525.44 227.299 524.984C227.05 524.528 226.925 524.011 226.925 523.434C226.925 522.856 227.046 522.347 227.289 521.905C227.531 521.455 227.859 521.103 228.272 520.846C228.693 520.589 229.163 520.461 229.684 520.461C230.097 520.461 230.464 520.539 230.785 520.696C231.113 520.846 231.391 521.053 231.619 521.316C231.847 521.573 232.022 521.865 232.143 522.193C232.264 522.514 232.325 522.846 232.325 523.188C232.325 523.259 232.321 523.341 232.314 523.434C232.307 523.519 232.297 523.608 232.282 523.701H227.438V522.952H231.822L231.438 523.273C231.502 522.881 231.455 522.532 231.299 522.225C231.149 521.912 230.931 521.666 230.646 521.488C230.361 521.302 230.04 521.21 229.684 521.21C229.327 521.21 228.996 521.302 228.689 521.488C228.39 521.673 228.155 521.933 227.984 522.268C227.813 522.596 227.745 522.988 227.781 523.444C227.745 523.901 227.816 524.3 227.994 524.642C228.18 524.977 228.429 525.237 228.743 525.423C229.064 525.608 229.406 525.701 229.769 525.701C230.19 525.701 230.543 525.601 230.828 525.401C231.113 525.202 231.345 524.952 231.523 524.653L232.207 525.016C232.093 525.273 231.919 525.512 231.683 525.733C231.448 525.947 231.167 526.121 230.839 526.257C230.518 526.385 230.162 526.449 229.769 526.449ZM233.631 528.459V520.589H234.433V521.872L234.304 521.648C234.532 521.284 234.835 520.996 235.213 520.782C235.598 520.568 236.037 520.461 236.529 520.461C237.07 520.461 237.551 520.593 237.972 520.857C238.4 521.113 238.735 521.466 238.977 521.915C239.227 522.364 239.351 522.878 239.351 523.455C239.351 524.025 239.227 524.539 238.977 524.995C238.735 525.444 238.4 525.8 237.972 526.064C237.551 526.321 237.07 526.449 236.529 526.449C236.037 526.449 235.591 526.339 235.192 526.118C234.8 525.89 234.504 525.569 234.304 525.155L234.433 525.038V528.459H233.631ZM236.486 525.647C236.871 525.647 237.213 525.551 237.512 525.358C237.819 525.166 238.058 524.906 238.229 524.578C238.407 524.243 238.496 523.869 238.496 523.455C238.496 523.034 238.407 522.66 238.229 522.332C238.058 522.004 237.819 521.744 237.512 521.552C237.213 521.359 236.871 521.263 236.486 521.263C236.101 521.263 235.751 521.359 235.438 521.552C235.131 521.744 234.885 522.008 234.7 522.343C234.522 522.671 234.433 523.042 234.433 523.455C234.433 523.869 234.522 524.243 234.7 524.578C234.885 524.906 235.131 525.166 235.438 525.358C235.751 525.551 236.101 525.647 236.486 525.647ZM243.264 526.449C242.729 526.449 242.244 526.321 241.809 526.064C241.382 525.8 241.043 525.44 240.794 524.984C240.544 524.528 240.419 524.011 240.419 523.434C240.419 522.856 240.54 522.347 240.783 521.905C241.025 521.455 241.353 521.103 241.767 520.846C242.187 520.589 242.658 520.461 243.178 520.461C243.592 520.461 243.959 520.539 244.279 520.696C244.607 520.846 244.885 521.053 245.114 521.316C245.342 521.573 245.516 521.865 245.637 522.193C245.759 522.514 245.819 522.846 245.819 523.188C245.819 523.259 245.816 523.341 245.809 523.434C245.801 523.519 245.791 523.608 245.776 523.701H240.933V522.952H245.317L244.932 523.273C244.996 522.881 244.95 522.532 244.793 522.225C244.643 521.912 244.426 521.666 244.14 521.488C243.855 521.302 243.535 521.21 243.178 521.21C242.822 521.21 242.49 521.302 242.184 521.488C241.884 521.673 241.649 521.933 241.478 522.268C241.307 522.596 241.239 522.988 241.275 523.444C241.239 523.901 241.31 524.3 241.489 524.642C241.674 524.977 241.923 525.237 242.237 525.423C242.558 525.608 242.9 525.701 243.264 525.701C243.684 525.701 244.037 525.601 244.322 525.401C244.607 525.202 244.839 524.952 245.017 524.653L245.702 525.016C245.588 525.273 245.413 525.512 245.178 525.733C244.942 525.947 244.661 526.121 244.333 526.257C244.012 526.385 243.656 526.449 243.264 526.449ZM249.317 526.385C248.804 526.385 248.408 526.235 248.13 525.936C247.852 525.636 247.713 525.209 247.713 524.653V521.391H246.654V520.589H246.922C247.164 520.589 247.357 520.511 247.499 520.354C247.642 520.19 247.713 519.987 247.713 519.745V519.263H248.515V520.589H249.777V521.391H248.515V524.653C248.515 524.845 248.543 525.016 248.601 525.166C248.658 525.309 248.754 525.423 248.889 525.508C249.032 525.594 249.221 525.636 249.456 525.636C249.513 525.636 249.581 525.633 249.659 525.626C249.738 525.619 249.805 525.611 249.862 525.604V526.321C249.777 526.342 249.681 526.356 249.574 526.364C249.467 526.378 249.381 526.385 249.317 526.385ZM251.162 526.321V520.589H251.964V526.321H251.162ZM251.162 519.531V518.354H251.964V519.531H251.162ZM255.689 526.385C255.176 526.385 254.78 526.235 254.502 525.936C254.224 525.636 254.085 525.209 254.085 524.653V521.391H253.027V520.589H253.294C253.537 520.589 253.729 520.511 253.872 520.354C254.014 520.19 254.085 519.987 254.085 519.745V519.263H254.887V520.589H256.149V521.391H254.887V524.653C254.887 524.845 254.916 525.016 254.973 525.166C255.03 525.309 255.126 525.423 255.262 525.508C255.404 525.594 255.593 525.636 255.828 525.636C255.885 525.636 255.953 525.633 256.032 525.626C256.11 525.619 256.178 525.611 256.235 525.604V526.321C256.149 526.342 256.053 526.356 255.946 526.364C255.839 526.378 255.754 526.385 255.689 526.385ZM257.535 526.321V520.589H258.337V526.321H257.535ZM257.535 519.531V518.354H258.337V519.531H257.535ZM261.399 526.321L259.164 520.589H260.062L261.944 525.615H261.656L263.548 520.589H264.457L262.201 526.321H261.399ZM267.79 526.449C267.255 526.449 266.771 526.321 266.336 526.064C265.908 525.8 265.57 525.44 265.32 524.984C265.071 524.528 264.946 524.011 264.946 523.434C264.946 522.856 265.067 522.347 265.309 521.905C265.552 521.455 265.88 521.103 266.293 520.846C266.714 520.589 267.184 520.461 267.705 520.461C268.118 520.461 268.485 520.539 268.806 520.696C269.134 520.846 269.412 521.053 269.64 521.316C269.868 521.573 270.043 521.865 270.164 522.193C270.285 522.514 270.346 522.846 270.346 523.188C270.346 523.259 270.342 523.341 270.335 523.434C270.328 523.519 270.317 523.608 270.303 523.701H265.459V522.952H269.843L269.458 523.273C269.522 522.881 269.476 522.532 269.319 522.225C269.17 521.912 268.952 521.666 268.667 521.488C268.382 521.302 268.061 521.21 267.705 521.21C267.348 521.21 267.017 521.302 266.71 521.488C266.411 521.673 266.175 521.933 266.004 522.268C265.833 522.596 265.766 522.988 265.801 523.444C265.766 523.901 265.837 524.3 266.015 524.642C266.2 524.977 266.45 525.237 266.764 525.423C267.084 525.608 267.427 525.701 267.79 525.701C268.211 525.701 268.564 525.601 268.849 525.401C269.134 525.202 269.366 524.952 269.544 524.653L270.228 525.016C270.114 525.273 269.939 525.512 269.704 525.733C269.469 525.947 269.187 526.121 268.859 526.257C268.539 526.385 268.182 526.449 267.79 526.449ZM160.862 541.321L158.895 535.589H159.804L161.429 540.604H161.108L162.638 535.589H163.44L164.969 540.604H164.648L166.284 535.589H167.182L165.215 541.321H164.413L162.926 536.413H163.151L161.664 541.321H160.862ZM170.593 541.449C170.051 541.449 169.559 541.321 169.117 541.064C168.675 540.8 168.322 540.444 168.059 539.995C167.802 539.539 167.674 539.022 167.674 538.444C167.674 537.874 167.802 537.364 168.059 536.915C168.315 536.466 168.661 536.113 169.096 535.857C169.538 535.593 170.037 535.461 170.593 535.461C171.149 535.461 171.644 535.589 172.079 535.846C172.521 536.103 172.867 536.455 173.116 536.905C173.373 537.354 173.501 537.867 173.501 538.444C173.501 539.029 173.37 539.549 173.106 540.006C172.842 540.455 172.489 540.808 172.047 541.064C171.612 541.321 171.128 541.449 170.593 541.449ZM170.593 540.647C170.978 540.647 171.324 540.551 171.63 540.358C171.944 540.166 172.19 539.902 172.368 539.567C172.553 539.232 172.646 538.858 172.646 538.444C172.646 538.031 172.553 537.66 172.368 537.332C172.19 537.004 171.944 536.744 171.63 536.552C171.324 536.359 170.978 536.263 170.593 536.263C170.208 536.263 169.859 536.359 169.545 536.552C169.238 536.744 168.993 537.004 168.807 537.332C168.622 537.66 168.529 538.031 168.529 538.444C168.529 538.858 168.622 539.232 168.807 539.567C168.993 539.902 169.238 540.166 169.545 540.358C169.859 540.551 170.208 540.647 170.593 540.647ZM174.807 541.321V535.589H175.609V536.53L175.502 536.391C175.638 536.12 175.841 535.907 176.112 535.75C176.39 535.593 176.725 535.514 177.117 535.514H177.481V536.316H176.978C176.565 536.316 176.233 536.445 175.984 536.701C175.734 536.958 175.609 537.322 175.609 537.792V541.321H174.807ZM178.312 541.321V533.226H179.114V538.893L178.772 538.84L181.991 535.589H183.028L180.782 537.888L183.231 541.321H182.269L179.97 538.145L180.483 538.188L178.847 539.877L179.114 539.214V541.321H178.312ZM184.65 541.321V536.391H183.506V535.589H184.65V535.076C184.65 534.677 184.739 534.342 184.917 534.071C185.096 533.793 185.331 533.583 185.623 533.44C185.915 533.297 186.229 533.226 186.564 533.226C186.635 533.226 186.717 533.233 186.81 533.248C186.903 533.255 186.978 533.265 187.035 533.28V534.007C186.985 533.993 186.917 533.985 186.832 533.985C186.746 533.978 186.685 533.975 186.65 533.975C186.308 533.975 186.022 534.057 185.794 534.221C185.566 534.385 185.452 534.67 185.452 535.076V535.589H188.671V536.391H185.452V541.321H184.65ZM188.264 541.321V533.226H189.066V541.321H188.264ZM193.289 541.449C192.748 541.449 192.256 541.321 191.814 541.064C191.372 540.8 191.019 540.444 190.755 539.995C190.499 539.539 190.37 539.022 190.37 538.444C190.37 537.874 190.499 537.364 190.755 536.915C191.012 536.466 191.358 536.113 191.792 535.857C192.234 535.593 192.733 535.461 193.289 535.461C193.845 535.461 194.341 535.589 194.776 535.846C195.218 536.103 195.563 536.455 195.813 536.905C196.07 537.354 196.198 537.867 196.198 538.444C196.198 539.029 196.066 539.549 195.802 540.006C195.539 540.455 195.186 540.808 194.744 541.064C194.309 541.321 193.824 541.449 193.289 541.449ZM193.289 540.647C193.674 540.647 194.02 540.551 194.327 540.358C194.64 540.166 194.886 539.902 195.064 539.567C195.25 539.232 195.342 538.858 195.342 538.444C195.342 538.031 195.25 537.66 195.064 537.332C194.886 537.004 194.64 536.744 194.327 536.552C194.02 536.359 193.674 536.263 193.289 536.263C192.904 536.263 192.555 536.359 192.242 536.552C191.935 536.744 191.689 537.004 191.504 537.332C191.318 537.66 191.226 538.031 191.226 538.444C191.226 538.858 191.318 539.232 191.504 539.567C191.689 539.902 191.935 540.166 192.242 540.358C192.555 540.551 192.904 540.647 193.289 540.647ZM198.661 541.321L196.694 535.589H197.603L199.228 540.604H198.907L200.436 535.589H201.238L202.767 540.604H202.447L204.083 535.589H204.981L203.013 541.321H202.211L200.725 536.413H200.95L199.463 541.321H198.661ZM207.801 541.449C207.252 541.449 206.771 541.31 206.358 541.032C205.944 540.754 205.645 540.376 205.459 539.899L206.133 539.578C206.297 539.927 206.525 540.205 206.817 540.412C207.117 540.619 207.445 540.722 207.801 540.722C208.143 540.722 208.432 540.64 208.667 540.476C208.903 540.305 209.02 540.084 209.02 539.813C209.02 539.613 208.963 539.457 208.849 539.343C208.735 539.221 208.603 539.129 208.453 539.065C208.304 539 208.172 538.954 208.058 538.926L207.234 538.69C206.707 538.541 206.325 538.33 206.09 538.059C205.855 537.789 205.737 537.475 205.737 537.118C205.737 536.783 205.823 536.491 205.994 536.242C206.165 535.992 206.397 535.8 206.689 535.664C206.981 535.529 207.306 535.461 207.662 535.461C208.147 535.461 208.585 535.589 208.977 535.846C209.377 536.095 209.658 536.445 209.822 536.894L209.138 537.215C208.995 536.894 208.788 536.644 208.518 536.466C208.254 536.281 207.958 536.188 207.63 536.188C207.309 536.188 207.053 536.27 206.86 536.434C206.668 536.598 206.571 536.805 206.571 537.054C206.571 537.247 206.621 537.4 206.721 537.514C206.821 537.628 206.935 537.714 207.063 537.771C207.199 537.828 207.316 537.871 207.416 537.899L208.368 538.177C208.831 538.312 209.191 538.523 209.448 538.808C209.712 539.093 209.843 539.428 209.843 539.813C209.843 540.127 209.754 540.408 209.576 540.658C209.405 540.907 209.166 541.103 208.86 541.246C208.553 541.381 208.2 541.449 207.801 541.449Z" fill="black" fill-opacity="0.6" />
</g>
<defs>
<filter id="filter0_ddd_26_1110" x="256.239" y="1.00992" width="198.178" height="153.923" filterUnits="userSpaceOnUse" color-interpolation-filters="sRGB">
<feFlood flood-opacity="0" result="BackgroundImageFix" />
<feColorMatrix in="SourceAlpha" type="matrix" values="0 0 0 0 0 0 0 0 0 0 0 0 0 0 0 0 0 0 127 0" result="hardAlpha" />
<feOffset dy="37.7821" />
<feGaussianBlur stdDeviation="11.4059" />
<feComposite in2="hardAlpha" operator="out" />
<feColorMatrix type="matrix" values="0 0 0 0 0 0 0 0 0 0 0 0 0 0 0 0 0 0 0.05 0" />
<feBlend mode="normal" in2="BackgroundImageFix" result="effect1_dropShadow_26_1110" />
<feColorMatrix in="SourceAlpha" type="matrix" values="0 0 0 0 0 0 0 0 0 0 0 0 0 0 0 0 0 0 127 0" result="hardAlpha" />
<feOffset dy="17.1089" />
<feGaussianBlur stdDeviation="8.55443" />
<feComposite in2="hardAlpha" operator="out" />
<feColorMatrix type="matrix" values="0 0 0 0 0 0 0 0 0 0 0 0 0 0 0 0 0 0 0.08 0" />
<feBlend mode="normal" in2="effect1_dropShadow_26_1110" result="effect2_dropShadow_26_1110" />
<feColorMatrix in="SourceAlpha" type="matrix" values="0 0 0 0 0 0 0 0 0 0 0 0 0 0 0 0 0 0 127 0" result="hardAlpha" />
<feOffset dy="4.27722" />
<feGaussianBlur stdDeviation="4.63365" />
<feComposite in2="hardAlpha" operator="out" />
<feColorMatrix type="matrix" values="0 0 0 0 0 0 0 0 0 0 0 0 0 0 0 0 0 0 0.09 0" />
<feBlend mode="normal" in2="effect2_dropShadow_26_1110" result="effect3_dropShadow_26_1110" />
<feBlend mode="normal" in="SourceGraphic" in2="effect3_dropShadow_26_1110" result="shape" />
</filter>
<filter id="filter1_ddd_26_1110" x="125.247" y="461.741" width="198.178" height="153.923" filterUnits="userSpaceOnUse" color-interpolation-filters="sRGB">
<feFlood flood-opacity="0" result="BackgroundImageFix" />
<feColorMatrix in="SourceAlpha" type="matrix" values="0 0 0 0 0 0 0 0 0 0 0 0 0 0 0 0 0 0 127 0" result="hardAlpha" />
<feOffset dy="37.7821" />
<feGaussianBlur stdDeviation="11.4059" />
<feComposite in2="hardAlpha" operator="out" />
<feColorMatrix type="matrix" values="0 0 0 0 0 0 0 0 0 0 0 0 0 0 0 0 0 0 0.05 0" />
<feBlend mode="normal" in2="BackgroundImageFix" result="effect1_dropShadow_26_1110" />
<feColorMatrix in="SourceAlpha" type="matrix" values="0 0 0 0 0 0 0 0 0 0 0 0 0 0 0 0 0 0 127 0" result="hardAlpha" />
<feOffset dy="17.1089" />
<feGaussianBlur stdDeviation="8.55443" />
<feComposite in2="hardAlpha" operator="out" />
<feColorMatrix type="matrix" values="0 0 0 0 0 0 0 0 0 0 0 0 0 0 0 0 0 0 0.08 0" />
<feBlend mode="normal" in2="effect1_dropShadow_26_1110" result="effect2_dropShadow_26_1110" />
<feColorMatrix in="SourceAlpha" type="matrix" values="0 0 0 0 0 0 0 0 0 0 0 0 0 0 0 0 0 0 127 0" result="hardAlpha" />
<feOffset dy="4.27722" />
<feGaussianBlur stdDeviation="4.63365" />
<feComposite in2="hardAlpha" operator="out" />
<feColorMatrix type="matrix" values="0 0 0 0 0 0 0 0 0 0 0 0 0 0 0 0 0 0 0.09 0" />
<feBlend mode="normal" in2="effect2_dropShadow_26_1110" result="effect3_dropShadow_26_1110" />
<feBlend mode="normal" in="SourceGraphic" in2="effect3_dropShadow_26_1110" result="shape" />
</filter>
<filter id="filter2_ddd_26_1110" x="420.2" y="461.741" width="198.178" height="153.923" filterUnits="userSpaceOnUse" color-interpolation-filters="sRGB">
<feFlood flood-opacity="0" result="BackgroundImageFix" />
<feColorMatrix in="SourceAlpha" type="matrix" values="0 0 0 0 0 0 0 0 0 0 0 0 0 0 0 0 0 0 127 0" result="hardAlpha" />
<feOffset dy="37.7821" />
<feGaussianBlur stdDeviation="11.4059" />
<feComposite in2="hardAlpha" operator="out" />
<feColorMatrix type="matrix" values="0 0 0 0 0 0 0 0 0 0 0 0 0 0 0 0 0 0 0.05 0" />
<feBlend mode="normal" in2="BackgroundImageFix" result="effect1_dropShadow_26_1110" />
<feColorMatrix in="SourceAlpha" type="matrix" values="0 0 0 0 0 0 0 0 0 0 0 0 0 0 0 0 0 0 127 0" result="hardAlpha" />
<feOffset dy="17.1089" />
<feGaussianBlur stdDeviation="8.55443" />
<feComposite in2="hardAlpha" operator="out" />
<feColorMatrix type="matrix" values="0 0 0 0 0 0 0 0 0 0 0 0 0 0 0 0 0 0 0.08 0" />
<feBlend mode="normal" in2="effect1_dropShadow_26_1110" result="effect2_dropShadow_26_1110" />
<feColorMatrix in="SourceAlpha" type="matrix" values="0 0 0 0 0 0 0 0 0 0 0 0 0 0 0 0 0 0 127 0" result="hardAlpha" />
<feOffset dy="4.27722" />
<feGaussianBlur stdDeviation="4.63365" />
<feComposite in2="hardAlpha" operator="out" />
<feColorMatrix type="matrix" values="0 0 0 0 0 0 0 0 0 0 0 0 0 0 0 0 0 0 0.09 0" />
<feBlend mode="normal" in2="effect2_dropShadow_26_1110" result="effect3_dropShadow_26_1110" />
<feBlend mode="normal" in="SourceGraphic" in2="effect3_dropShadow_26_1110" result="shape" />
</filter>
<filter id="filter3_ddd_26_1110" x="45.446" y="89.465" width="198.178" height="153.923" filterUnits="userSpaceOnUse" color-interpolation-filters="sRGB">
<feFlood flood-opacity="0" result="BackgroundImageFix" />
<feColorMatrix in="SourceAlpha" type="matrix" values="0 0 0 0 0 0 0 0 0 0 0 0 0 0 0 0 0 0 127 0" result="hardAlpha" />
<feOffset dy="37.7821" />
<feGaussianBlur stdDeviation="11.4059" />
<feComposite in2="hardAlpha" operator="out" />
<feColorMatrix type="matrix" values="0 0 0 0 0 0 0 0 0 0 0 0 0 0 0 0 0 0 0.05 0" />
<feBlend mode="normal" in2="BackgroundImageFix" result="effect1_dropShadow_26_1110" />
<feColorMatrix in="SourceAlpha" type="matrix" values="0 0 0 0 0 0 0 0 0 0 0 0 0 0 0 0 0 0 127 0" result="hardAlpha" />
<feOffset dy="17.1089" />
<feGaussianBlur stdDeviation="8.55443" />
<feComposite in2="hardAlpha" operator="out" />
<feColorMatrix type="matrix" values="0 0 0 0 0 0 0 0 0 0 0 0 0 0 0 0 0 0 0.08 0" />
<feBlend mode="normal" in2="effect1_dropShadow_26_1110" result="effect2_dropShadow_26_1110" />
<feColorMatrix in="SourceAlpha" type="matrix" values="0 0 0 0 0 0 0 0 0 0 0 0 0 0 0 0 0 0 127 0" result="hardAlpha" />
<feOffset dy="4.27722" />
<feGaussianBlur stdDeviation="4.63365" />
<feComposite in2="hardAlpha" operator="out" />
<feColorMatrix type="matrix" values="0 0 0 0 0 0 0 0 0 0 0 0 0 0 0 0 0 0 0.09 0" />
<feBlend mode="normal" in2="effect2_dropShadow_26_1110" result="effect3_dropShadow_26_1110" />
<feBlend mode="normal" in="SourceGraphic" in2="effect3_dropShadow_26_1110" result="shape" />
</filter>
<filter id="filter4_ddd_26_1110" x="0.000688553" y="284.613" width="198.178" height="153.923" filterUnits="userSpaceOnUse" color-interpolation-filters="sRGB">
<feFlood flood-opacity="0" result="BackgroundImageFix" />
<feColorMatrix in="SourceAlpha" type="matrix" values="0 0 0 0 0 0 0 0 0 0 0 0 0 0 0 0 0 0 127 0" result="hardAlpha" />
<feOffset dy="37.7821" />
<feGaussianBlur stdDeviation="11.4059" />
<feComposite in2="hardAlpha" operator="out" />
<feColorMatrix type="matrix" values="0 0 0 0 0 0 0 0 0 0 0 0 0 0 0 0 0 0 0.05 0" />
<feBlend mode="normal" in2="BackgroundImageFix" result="effect1_dropShadow_26_1110" />
<feColorMatrix in="SourceAlpha" type="matrix" values="0 0 0 0 0 0 0 0 0 0 0 0 0 0 0 0 0 0 127 0" result="hardAlpha" />
<feOffset dy="17.1089" />
<feGaussianBlur stdDeviation="8.55443" />
<feComposite in2="hardAlpha" operator="out" />
<feColorMatrix type="matrix" values="0 0 0 0 0 0 0 0 0 0 0 0 0 0 0 0 0 0 0.08 0" />
<feBlend mode="normal" in2="effect1_dropShadow_26_1110" result="effect2_dropShadow_26_1110" />
<feColorMatrix in="SourceAlpha" type="matrix" values="0 0 0 0 0 0 0 0 0 0 0 0 0 0 0 0 0 0 127 0" result="hardAlpha" />
<feOffset dy="4.27722" />
<feGaussianBlur stdDeviation="4.63365" />
<feComposite in2="hardAlpha" operator="out" />
<feColorMatrix type="matrix" values="0 0 0 0 0 0 0 0 0 0 0 0 0 0 0 0 0 0 0.09 0" />
<feBlend mode="normal" in2="effect2_dropShadow_26_1110" result="effect3_dropShadow_26_1110" />
<feBlend mode="normal" in="SourceGraphic" in2="effect3_dropShadow_26_1110" result="shape" />
</filter>
<filter id="filter5_ddd_26_1110" x="471.801" y="287.286" width="198.178" height="153.923" filterUnits="userSpaceOnUse" color-interpolation-filters="sRGB">
<feFlood flood-opacity="0" result="BackgroundImageFix" />
<feColorMatrix in="SourceAlpha" type="matrix" values="0 0 0 0 0 0 0 0 0 0 0 0 0 0 0 0 0 0 127 0" result="hardAlpha" />
<feOffset dy="37.7821" />
<feGaussianBlur stdDeviation="11.4059" />
<feComposite in2="hardAlpha" operator="out" />
<feColorMatrix type="matrix" values="0 0 0 0 0 0 0 0 0 0 0 0 0 0 0 0 0 0 0.05 0" />
<feBlend mode="normal" in2="BackgroundImageFix" result="effect1_dropShadow_26_1110" />
<feColorMatrix in="SourceAlpha" type="matrix" values="0 0 0 0 0 0 0 0 0 0 0 0 0 0 0 0 0 0 127 0" result="hardAlpha" />
<feOffset dy="17.1089" />
<feGaussianBlur stdDeviation="8.55443" />
<feComposite in2="hardAlpha" operator="out" />
<feColorMatrix type="matrix" values="0 0 0 0 0 0 0 0 0 0 0 0 0 0 0 0 0 0 0.08 0" />
<feBlend mode="normal" in2="effect1_dropShadow_26_1110" result="effect2_dropShadow_26_1110" />
<feColorMatrix in="SourceAlpha" type="matrix" values="0 0 0 0 0 0 0 0 0 0 0 0 0 0 0 0 0 0 127 0" result="hardAlpha" />
<feOffset dy="4.27722" />
<feGaussianBlur stdDeviation="4.63365" />
<feComposite in2="hardAlpha" operator="out" />
<feColorMatrix type="matrix" values="0 0 0 0 0 0 0 0 0 0 0 0 0 0 0 0 0 0 0.09 0" />
<feBlend mode="normal" in2="effect2_dropShadow_26_1110" result="effect3_dropShadow_26_1110" />
<feBlend mode="normal" in="SourceGraphic" in2="effect3_dropShadow_26_1110" result="shape" />
</filter>
<filter id="filter6_ddd_26_1110" x="471.801" y="89.465" width="198.178" height="153.923" filterUnits="userSpaceOnUse" color-interpolation-filters="sRGB">
<feFlood flood-opacity="0" result="BackgroundImageFix" />
<feColorMatrix in="SourceAlpha" type="matrix" values="0 0 0 0 0 0 0 0 0 0 0 0 0 0 0 0 0 0 127 0" result="hardAlpha" />
<feOffset dy="37.7821" />
<feGaussianBlur stdDeviation="11.4059" />
<feComposite in2="hardAlpha" operator="out" />
<feColorMatrix type="matrix" values="0 0 0 0 0 0 0 0 0 0 0 0 0 0 0 0 0 0 0.05 0" />
<feBlend mode="normal" in2="BackgroundImageFix" result="effect1_dropShadow_26_1110" />
<feColorMatrix in="SourceAlpha" type="matrix" values="0 0 0 0 0 0 0 0 0 0 0 0 0 0 0 0 0 0 127 0" result="hardAlpha" />
<feOffset dy="17.1089" />
<feGaussianBlur stdDeviation="8.55443" />
<feComposite in2="hardAlpha" operator="out" />
<feColorMatrix type="matrix" values="0 0 0 0 0 0 0 0 0 0 0 0 0 0 0 0 0 0 0.08 0" />
<feBlend mode="normal" in2="effect1_dropShadow_26_1110" result="effect2_dropShadow_26_1110" />
<feColorMatrix in="SourceAlpha" type="matrix" values="0 0 0 0 0 0 0 0 0 0 0 0 0 0 0 0 0 0 127 0" result="hardAlpha" />
<feOffset dy="4.27722" />
<feGaussianBlur stdDeviation="4.63365" />
<feComposite in2="hardAlpha" operator="out" />
<feColorMatrix type="matrix" values="0 0 0 0 0 0 0 0 0 0 0 0 0 0 0 0 0 0 0.09 0" />
<feBlend mode="normal" in2="effect2_dropShadow_26_1110" result="effect3_dropShadow_26_1110" />
<feBlend mode="normal" in="SourceGraphic" in2="effect3_dropShadow_26_1110" result="shape" />
</filter>
<radialGradient id="paint0_radial_26_1110" cx="0" cy="0" r="1" gradientTransform="matrix(7.41749 0.0278054 -0.0277743 7.41801 282.463 248.673)" gradientUnits="userSpaceOnUse">
<stop stop-color="white" />
<stop offset="1" stop-color="#F1F1F1" />
</radialGradient>
<radialGradient id="paint1_radial_26_1110" cx="0" cy="0" r="1" gradientUnits="userSpaceOnUse" gradientTransform="translate(417.211 248.276) rotate(1.84573) scale(13.1999)">
<stop stop-color="white" />
<stop offset="1" stop-color="#F1F1F1" />
</radialGradient>
<linearGradient id="paint2_linear_26_1110" x1="303.023" y1="317.77" x2="280.425" y2="358.1" gradientUnits="userSpaceOnUse">
<stop stop-color="#D7DAE3" />
<stop offset="1" stop-color="#F1F4F9" />
</linearGradient>
<linearGradient id="paint3_linear_26_1110" x1="404.046" y1="315.187" x2="434.79" y2="348.514" gradientUnits="userSpaceOnUse">
<stop stop-color="#D7DAE3" />
<stop offset="1" stop-color="#F1F4F9" />
</linearGradient>
<linearGradient id="paint4_linear_26_1110" x1="354.347" y1="325.241" x2="354.347" y2="423.357" gradientUnits="userSpaceOnUse">
<stop stop-color="#F8F9FD" />
<stop offset="1" stop-color="#DBDEE6" />
</linearGradient>
<linearGradient id="paint5_linear_26_1110" x1="354.349" y1="358.843" x2="354.349" y2="374.45" gradientUnits="userSpaceOnUse">
<stop />
<stop offset="0.998853" stop-color="#1A1F26" />
<stop offset="1" />
</linearGradient>
<radialGradient id="paint6_radial_26_1110" cx="0" cy="0" r="1" gradientTransform="matrix(14.1456 -0.815973 0.0783352 1.13758 353.343 370.439)" gradientUnits="userSpaceOnUse">
<stop stop-color="#A7F701" />
<stop offset="1" stop-color="#7ACD08" />
</radialGradient>
<linearGradient id="paint7_linear_26_1110" x1="354.345" y1="277.29" x2="354.345" y2="310.69" gradientUnits="userSpaceOnUse">
<stop stop-color="#DEE3EB" />
<stop offset="0.205554" stop-color="#0D1015" />
<stop offset="1" stop-color="#11141B" />
</linearGradient>
<linearGradient id="paint8_linear_26_1110" x1="354.345" y1="205.555" x2="354.345" y2="194.167" gradientUnits="userSpaceOnUse">
<stop stop-color="#F3F7FA" />
<stop offset="1" stop-color="#D1D7E5" />
</linearGradient>
<radialGradient id="paint9_radial_26_1110" cx="0" cy="0" r="1" gradientTransform="matrix(23.6652 0.802662 -0.0668294 1.87025 353.696 200.784)" gradientUnits="userSpaceOnUse">
<stop stop-color="#3184FE" />
<stop offset="1" stop-color="#0041EC" />
</radialGradient>
<linearGradient id="paint10_linear_26_1110" x1="353.258" y1="212.342" x2="353.258" y2="293.345" gradientUnits="userSpaceOnUse">
<stop stop-color="#F8F9FD" />
<stop offset="1" stop-color="#CBCED7" />
</linearGradient>
<radialGradient id="paint11_radial_26_1110" cx="0" cy="0" r="1" gradientUnits="userSpaceOnUse" gradientTransform="translate(354.346 252.808) scale(61.5241 35.2174)">
<stop stop-color="#081E5E" />
<stop offset="1" />
</radialGradient>
<radialGradient id="paint12_radial_26_1110" cx="0" cy="0" r="1" gradientUnits="userSpaceOnUse" gradientTransform="translate(326.783 250.468) scale(7.51237 7.51243)">
<stop stop-color="#8BC500" />
<stop offset="1" stop-color="white" />
</radialGradient>
<radialGradient id="paint13_radial_26_1110" cx="0" cy="0" r="1" gradientUnits="userSpaceOnUse" gradientTransform="translate(354.34 270.964) scale(6.04607 5.14324)">
<stop stop-color="#8BC500" />
<stop offset="1" stop-color="white" />
</radialGradient>
<radialGradient id="paint14_radial_26_1110" cx="0" cy="0" r="1" gradientUnits="userSpaceOnUse" gradientTransform="translate(381.81 250.468) scale(7.51243)">
<stop stop-color="#8BC500" />
<stop offset="1" stop-color="white" />
</radialGradient>
<linearGradient id="paint15_linear_26_1110" x1="389.36" y1="345.525" x2="438.403" y2="345.525" gradientUnits="userSpaceOnUse">
<stop stop-color="#8F96A2" />
<stop offset="1" stop-color="#D5DBE2" />
</linearGradient>
<linearGradient id="paint16_linear_26_1110" x1="354.345" y1="358.842" x2="354.345" y2="374.449" gradientUnits="userSpaceOnUse">
<stop />
<stop offset="0.998853" />
<stop offset="1" />
</linearGradient>
<radialGradient id="paint17_radial_26_1110" cx="0" cy="0" r="1" gradientTransform="matrix(22.1579 -2.47886 0.562148 3.68473 354.473 304.371)" gradientUnits="userSpaceOnUse">
<stop stop-color="#126CF8" />
<stop offset="1" stop-color="#002172" />
</radialGradient>
<radialGradient id="paint18_radial_26_1110" cx="0" cy="0" r="1" gradientUnits="userSpaceOnUse" gradientTransform="translate(419.345 248.732) rotate(90) scale(17.6321 1.29137)">
<stop stop-color="#ACFA05" />
<stop offset="1" stop-color="#3F7507" />
</radialGradient>
<radialGradient id="paint19_radial_26_1110" cx="0" cy="0" r="1" gradientUnits="userSpaceOnUse" gradientTransform="translate(287.131 248.732) rotate(90) scale(17.3341 1.29137)">
<stop stop-color="#ACFA05" />
<stop offset="1" stop-color="#3F7507" />
</radialGradient>
<radialGradient id="paint20_radial_26_1110" cx="0" cy="0" r="1" gradientTransform="matrix(-7.53015 27.3459 -9.55504 -2.35916 411.364 317.988)" gradientUnits="userSpaceOnUse">
<stop stop-color="#126EFE" />
<stop offset="1" stop-color="#081E5E" />
</radialGradient>
<radialGradient id="paint21_radial_26_1110" cx="0" cy="0" r="1" gradientTransform="matrix(7.53015 27.3459 9.55504 -2.35916 297.472 318.18)" gradientUnits="userSpaceOnUse">
<stop stop-color="#126EFE" />
<stop offset="1" stop-color="#081E5E" />
</radialGradient>
<clipPath id="clip0_26_1110">
<rect width="12.4752" height="12.4752" fill="white" transform="translate(296.008 22.9878)" />
</clipPath>
<clipPath id="clip1_26_1110">
<rect width="12.4752" height="12.4752" fill="white" transform="translate(85.2148 111.443)" />
</clipPath>
<clipPath id="clip2_26_1110">
<rect width="12.4752" height="12.4752" fill="white" transform="translate(39.7695 306.591)" />
</clipPath>
<clipPath id="clip3_26_1110">
<rect width="12.4752" height="12.4752" fill="white" transform="translate(511.57 111.443)" />
</clipPath>
</defs>
</svg>